<?xml version="1.0" standalone="no"?><!DOCTYPE svg PUBLIC "-//W3C//DTD SVG 1.1//EN" "http://www.w3.org/Graphics/SVG/1.1/DTD/svg11.dtd"><svg t="1681209035322" class="icon" viewBox="0 0 1024 1024" version="1.1" xmlns="http://www.w3.org/2000/svg" p-id="11167" xmlns:xlink="http://www.w3.org/1999/xlink" width="200" height="200"><path d="M615.566 96.066c100.812 25.468 379.93 225.622 369.648 266.244-10.25 40.624-350.93 84.216-451.738 58.75-100.812-25.436-164.156-118.84-141.468-208.588 22.656-89.75 122.75-141.842 223.558-116.406z" fill="#8CC153" p-id="11168"></path><path d="M251.824 661.336c-11.376 0-20.844-9-21.282-20.5-3.686-94.124 11.376-186.246 44.78-273.838 26.656-69.904 64.968-136.996 113.874-199.464 83.186-106.216 167.466-161.746 170.998-164.058 9.876-6.438 23.094-3.624 29.532 6.25 6.436 9.844 3.624 23.062-6.25 29.5-0.782 0.532-82.78 54.716-161.624 155.778-46 59.03-81.998 122.28-106.998 188.058-31.094 81.904-45.124 168.09-41.686 256.12 0.468 11.782-8.718 21.688-20.5 22.156l-0.844-0.002z" fill="#A0D468" p-id="11169"></path><path d="M721.16 618.682c-11.562 0-21.094-9.282-21.312-20.906-4.156-208.59-260.966-451.774-263.558-454.18-8.594-8.062-9.032-21.562-0.968-30.156s21.562-9.032 30.156-0.968c2.782 2.594 68.626 64.654 136.028 154.964 39.75 53.282 71.688 105.342 94.906 154.684 29.532 62.78 45.03 121.59 46.092 174.81 0.25 11.782-9.124 21.5-20.904 21.75l-0.44 0.002z" fill="#A0D468" p-id="11170"></path><path d="M465.164 810.678c0 106.028-95.498 213.306-213.308 213.306S37.548 916.706 38.516 810.678c1.75-191.996 127.998-191.996 213.338-170.654 85.312-21.342 213.31-21.342 213.31 170.654z" fill="#D63A5F" p-id="11171"></path><path d="M299.104 631.742c64.5 6.812 123.404 48.688 123.404 178.936 0 99.558-84.186 200.212-191.996 212.15a192.68 192.68 0 0 0 21.344 1.156c117.81 0 213.308-107.28 213.308-213.306 0-158.78-87.53-186.248-166.06-178.936z" fill="#FFFFFF" opacity=".2" p-id="11172"></path><path d="M934.498 768.022c0 106.028-95.498 213.308-213.306 213.308-117.844 0-214.31-107.282-213.342-213.308 1.75-191.996 127.998-191.996 213.342-170.684 85.308-21.312 213.306-21.312 213.306 170.684z" fill="#C6325C" p-id="11173"></path><path d="M768.408 589.088c64.53 6.812 123.436 48.686 123.436 178.934 0 99.528-84.188 200.214-191.996 212.122 7 0.782 14.124 1.188 21.344 1.188 117.808 0 213.306-107.282 213.306-213.308 0-158.78-87.53-186.248-166.09-178.936z" fill="#FFFFFF" opacity=".2" p-id="11174"></path></svg>